<?xml version="1.0" encoding="utf-8"?>
<svg width="200px" height="50px" viewBox="0 0 200 50" version="1.1" xmlns:xlink="http://www.w3.org/1999/xlink" xmlns="http://www.w3.org/2000/svg">
  <defs>
    <path d="M200 0L200 0L200 50L0 50L0 0L200 0Z" id="path_1" />
    <path d="M44.1511 11.0569L27.4995 1.44309Q27.2158 1.27926 26.913 1.15388Q26.6103 1.02849 26.2938 0.943687Q25.9774 0.858884 25.6525 0.816117Q25.3277 0.77335 25 0.773351Q24.6723 0.773351 24.3475 0.816119Q24.0226 0.858886 23.7062 0.943689Q23.3897 1.02849 23.087 1.15388Q22.7843 1.27927 22.5005 1.44309L5.84882 11.057Q5.56506 11.2208 5.30512 11.4203Q5.04518 11.6197 4.81349 11.8514Q4.58181 12.0831 4.38234 12.3431Q4.18288 12.603 4.01906 12.8868Q3.85523 13.1705 3.72985 13.4732Q3.60446 13.7759 3.51966 14.0924Q3.43486 14.4089 3.39209 14.7338Q3.34933 15.0586 3.34933 15.3863L3.3494 34.6139Q3.3494 34.9415 3.39216 35.2664Q3.43493 35.5912 3.51974 35.9077Q3.60454 36.2242 3.72993 36.5269Q3.85532 36.8296 4.01914 37.1134Q4.18297 37.3972 4.38243 37.6571Q4.58189 37.917 4.81358 38.1487Q5.04526 38.3804 5.30521 38.5799Q5.56515 38.7793 5.84891 38.9431L22.5006 48.5569Q22.7843 48.7207 23.087 48.8461Q23.3897 48.9715 23.7062 49.0563Q24.0227 49.1411 24.3476 49.1839Q24.6724 49.2267 25.0001 49.2267Q25.3277 49.2267 25.6526 49.1839Q25.9774 49.1411 26.2939 49.0563Q26.6104 48.9715 26.9131 48.8461Q27.2158 48.7207 27.4996 48.5569L44.1512 38.9431Q44.4349 38.7792 44.6949 38.5798Q44.9548 38.3803 45.1865 38.1486Q45.4182 37.9169 45.6176 37.657Q45.8171 37.3971 45.9809 37.1133Q46.1447 36.8295 46.2701 36.5268Q46.3955 36.2241 46.4803 35.9076Q46.5651 35.5911 46.6079 35.2663Q46.6507 34.9414 46.6507 34.6138L46.6506 15.3862Q46.6506 15.0585 46.6079 14.7337Q46.5651 14.4088 46.4803 14.0923Q46.3955 13.7758 46.2701 13.4731Q46.1447 13.1704 45.9809 12.8867Q45.8171 12.6029 45.6176 12.343Q45.4181 12.083 45.1865 11.8513Q44.9548 11.6196 44.6948 11.4202Q44.4349 11.2207 44.1511 11.0569ZM23.206 18.832Q24.022 18.208 25.822 17.512Q27.622 16.816 30.07 16.816Q32.758 16.816 34.846 17.776Q36.934 18.736 38.374 20.464Q39.814 22.192 40.558 24.568Q41.302 26.944 41.302 29.776Q41.302 32.8 40.414 35.2Q39.526 37.6 37.918 39.28Q36.31 40.96 34.078 41.848Q31.846 42.736 29.11 42.736Q25.798 42.736 23.638 42.304Q21.478 41.872 20.086 41.392L20.086 5.488L23.206 4.912L23.206 18.832ZM90.862 28.648Q92.5592 29.842 94.2876 31.4072Q96.016 32.9725 97.6953 34.7984Q99.3745 36.6242 100.859 38.5454Q102.344 40.4665 103.39 42.16L99.6407 42.16Q98.5142 40.2677 97.0266 38.4482Q95.539 36.6287 93.9051 35.0219Q92.2712 33.415 90.6374 32.0916Q89.0035 30.7682 87.742 30.1045L87.742 42.16L84.622 42.16L84.622 5.488L87.742 4.912L87.742 28.033Q88.7432 27.175 90.2376 25.6937Q91.732 24.2125 93.2822 22.714Q94.8325 21.2155 96.2103 19.8104Q97.588 18.4053 98.5217 17.344L102.334 17.344Q101.231 18.4975 99.8054 19.903Q98.3792 21.3085 96.8324 22.8329Q95.2855 24.3572 93.7866 25.8344Q92.2877 27.3115 90.862 28.648ZM115.474 29.728Q115.474 26.464 116.41 24.04Q117.346 21.616 118.858 19.984Q120.37 18.352 122.314 17.56Q124.258 16.768 126.322 16.768Q130.882 16.768 133.594 19.744Q136.306 22.72 136.306 28.912Q136.306 29.296 136.282 29.68Q136.258 30.064 136.21 30.4L118.786 30.4Q118.93 34.96 121.042 37.408Q123.154 39.856 127.762 39.856Q130.306 39.856 131.794 39.376Q133.282 38.896 133.954 38.56L134.53 41.248Q133.858 41.632 132.01 42.16Q130.162 42.688 127.666 42.688Q124.402 42.688 122.098 41.728Q119.794 40.768 118.306 39.04Q116.818 37.312 116.146 34.936Q115.474 32.56 115.474 29.728ZM151.078 29.728Q151.078 26.464 152.014 24.04Q152.95 21.616 154.462 19.984Q155.974 18.352 157.918 17.56Q159.862 16.768 161.926 16.768Q166.486 16.768 169.198 19.744Q171.91 22.72 171.91 28.912Q171.91 29.296 171.886 29.68Q171.862 30.064 171.814 30.4L154.39 30.4Q154.534 34.96 156.646 37.408Q158.758 39.856 163.366 39.856Q165.91 39.856 167.398 39.376Q168.886 38.896 169.558 38.56L170.134 41.248Q169.462 41.632 167.614 42.16Q165.766 42.688 163.27 42.688Q160.006 42.688 157.702 41.728Q155.398 40.768 153.91 39.04Q152.422 37.312 151.75 34.936Q151.078 32.56 151.078 29.728ZM65.818 16.864Q67.354 16.864 68.722 17.104Q70.09 17.344 70.618 17.584L69.994 20.272Q69.61 20.08 68.434 19.864Q67.258 19.648 65.338 19.648Q63.322 19.648 62.098 19.936Q60.874 20.224 60.49 20.416L60.49 42.16L57.37 42.16L57.37 18.496Q58.57 17.968 60.682 17.416Q62.794 16.864 65.818 16.864ZM133.09 27.76Q132.994 23.872 131.266 21.712Q129.538 19.552 126.37 19.552Q124.69 19.552 123.37 20.224Q122.05 20.896 121.066 22.024Q120.082 23.152 119.53 24.64Q118.978 26.128 118.882 27.76L133.09 27.76ZM168.694 27.76Q168.598 23.872 166.87 21.712Q165.142 19.552 161.974 19.552Q160.294 19.552 158.974 20.224Q157.654 20.896 156.67 22.024Q155.686 23.152 155.134 24.64Q154.582 26.128 154.486 27.76L168.694 27.76ZM23.206 39.232Q23.926 39.472 25.342 39.688Q26.758 39.904 29.062 39.904Q33.094 39.904 35.542 37.288Q37.99 34.672 37.99 29.776Q37.99 27.712 37.558 25.864Q37.126 24.016 36.166 22.648Q35.206 21.28 33.646 20.464Q32.086 19.648 29.782 19.648Q28.678 19.648 27.67 19.864Q26.662 20.08 25.798 20.416Q24.934 20.752 24.286 21.136Q23.638 21.52 23.206 21.856L23.206 39.232Z" id="path_2" />
    <clipPath id="clip_1">
      <use xlink:href="#path_1" />
    </clipPath>
  </defs>
  <g id="brkee - wide" clip-path="url(#clip_1)">
    <path d="M200 0L200 0L200 50L0 50L0 0L200 0Z" id="brkee---wide" fill="none" stroke="none" />
    <path d="M27.4995 1.44309L44.1511 11.0569Q44.4349 11.2207 44.6948 11.4202Q44.9548 11.6196 45.1865 11.8513Q45.4181 12.083 45.6176 12.343Q45.8171 12.6029 45.9809 12.8867Q46.1447 13.1704 46.2701 13.4731Q46.3955 13.7758 46.4803 14.0923Q46.5651 14.4088 46.6079 14.7337Q46.6506 15.0585 46.6506 15.3862L46.6507 34.6138Q46.6507 34.9414 46.6079 35.2663Q46.5651 35.5911 46.4803 35.9076Q46.3955 36.2241 46.2701 36.5268Q46.1447 36.8295 45.9809 37.1133Q45.8171 37.397 45.6176 37.657Q45.4182 37.9169 45.1865 38.1486Q44.9548 38.3803 44.6949 38.5798Q44.4349 38.7792 44.1512 38.9431L27.4996 48.5569Q27.2158 48.7207 26.9131 48.8461Q26.6104 48.9715 26.2939 49.0563Q25.9774 49.1411 25.6526 49.1839Q25.3277 49.2267 25.0001 49.2267Q24.6724 49.2267 24.3476 49.1839Q24.0227 49.1411 23.7062 49.0563Q23.3897 48.9715 23.087 48.8461Q22.7843 48.7207 22.5006 48.5569L5.84891 38.9431Q5.56515 38.7793 5.30521 38.5799Q5.04526 38.3804 4.81358 38.1487Q4.58189 37.917 4.38243 37.6571Q4.18297 37.3972 4.01914 37.1134Q3.85532 36.8296 3.72993 36.5269Q3.60454 36.2242 3.51974 35.9077Q3.43493 35.5912 3.39216 35.2664Q3.3494 34.9415 3.3494 34.6139L3.34933 15.3863Q3.34933 15.0586 3.39209 14.7338Q3.43486 14.4089 3.51966 14.0924Q3.60446 13.7759 3.72985 13.4732Q3.85523 13.1705 4.01906 12.8868Q4.18288 12.603 4.38234 12.3431Q4.58181 12.0831 4.81349 11.8514Q5.04518 11.6197 5.30512 11.4203Q5.56506 11.2208 5.84882 11.057L22.5005 1.44309Q22.7843 1.27927 23.087 1.15388Q23.3897 1.02849 23.7062 0.943689Q24.0226 0.858886 24.3475 0.816119Q24.6723 0.773351 25 0.773351Q25.3277 0.77335 25.6525 0.816117Q25.9774 0.858884 26.2938 0.943686Q26.6103 1.02849 26.913 1.15388Q27.2157 1.27926 27.4995 1.44309L27.4995 1.44309Z" id="Mask" fill="#FFFFFF" fill-rule="evenodd" stroke="none" />
    <g id="Mask-Difference">
      <use xlink:href="#path_2" fill="none" stroke="#FFFFFF" stroke-width="1" />
      <use stroke="none" fill="#000000" xlink:href="#path_2" fill-rule="evenodd" />
    </g>
  </g>
</svg>